<svg width="83" height="25" viewBox="0 0 83 25" fill="currentColor" xmlns="http://www.w3.org/2000/svg">
<path d="M5.59 5.6V19.4H9.67C13.45 19.4 15.04 16.28 15.04 12.5C15.04 8.72 13.45 5.6 9.67 5.6H5.59ZM0.55 20.63V4.34C0.55 2.36 1.51 1.37 3.49 1.37H9.52C15.04 1.37 20.08 3.8 20.08 12.5C20.08 19.52 16.15 23.6 9.43 23.6H3.49C1.51 23.6 0.55 22.61 0.55 20.63ZM31.8728 1.19C33.4028 1.19 34.3928 1.94 34.9028 3.17L42.1028 20.63C42.6428 21.95 42.0428 23.24 40.6328 23.66C39.2828 24.11 38.0228 23.36 37.4828 21.98L36.1328 18.44H27.5828L26.2628 21.98C25.7228 23.36 24.4628 24.11 23.0828 23.66C21.7028 23.24 21.1028 21.95 21.6428 20.63L28.8428 3.17C29.3528 1.94 30.3428 1.19 31.8728 1.19ZM31.8128 7.25L29.1728 14.24H34.5728L31.9328 7.25H31.8128ZM51.5233 17.27H51.5833L56.8033 2.87C57.2833 1.4 58.6633 0.769998 60.0733 1.13C61.4533 1.52 61.9933 2.87 61.4833 4.22L54.6733 21.83C54.1633 23.06 53.0833 23.78 51.5533 23.78C50.0233 23.78 48.9433 23.06 48.4633 21.83L41.6233 4.22C41.1133 2.87 41.6533 1.52 43.0633 1.13C44.4433 0.769998 45.8233 1.4 46.3033 2.87L51.5233 17.27ZM71.5408 1.19C73.0708 1.19 74.0608 1.94 74.5708 3.17L81.7708 20.63C82.3108 21.95 81.7108 23.24 80.3008 23.66C78.9508 24.11 77.6908 23.36 77.1508 21.98L75.8008 18.44H67.2508L65.9308 21.98C65.3908 23.36 64.1308 24.11 62.7508 23.66C61.3708 23.24 60.7708 21.95 61.3108 20.63L68.5108 3.17C69.0208 1.94 70.0108 1.19 71.5408 1.19ZM71.4808 7.25L68.8408 14.24H74.2408L71.6008 7.25H71.4808Z" fill="white"/>
</svg>
